<?xml version="1.0" encoding="utf-8"?>
<!-- Generator: Adobe Illustrator 16.0.0, SVG Export Plug-In . SVG Version: 6.00 Build 0)  -->
<!DOCTYPE svg PUBLIC "-//W3C//DTD SVG 1.1//EN" "http://www.w3.org/Graphics/SVG/1.1/DTD/svg11.dtd">
<svg version="1.1" id="Layer_1" xmlns="http://www.w3.org/2000/svg" xmlns:xlink="http://www.w3.org/1999/xlink" x="0px" y="0px"
	 width="728.333px" height="212.125px" viewBox="53.319 163.432 728.333 212.125"
	 enable-background="new 53.319 163.432 728.333 212.125" xml:space="preserve">
<g id="Layer_1_1_">
</g>
<g id="Layer_2">
</g>
<g id="Layer_3">
	<path fill="#58595B" d="M296.35,211.063H151.233c0.644,1.481,1.035,3.257,1.085,5.406c0.029,1.223-0.136,2.298-0.452,3.25H296.35
		c3.123,0,5.953,1.153,8.197,2.998l-85.592,85.584c-5.064,5.06-13.299,5.06-18.363,0l-61.562-61.559
		c-0.32,0.119-0.658,0.216-1.018,0.283c-0.469,2.36-1.93,4.477-4.752,6.188l33.431,33.429l-56.478,52.949V263.89
		c-2.299,1.74-5.553,2.08-8.133-0.637c-0.174-0.184-0.349-0.376-0.525-0.572v91.229c0,11.936,9.71,21.646,21.643,21.646H296.35
		c11.934,0,21.645-9.71,21.645-21.646V232.707C317.995,220.772,308.284,211.063,296.35,211.063z M309.336,353.911
		c0,7.161-5.826,12.987-12.986,12.987H123.198c-7.161,0-12.985-5.826-12.985-12.987v-2.452l62.603-58.689l21.656,21.653
		c4.219,4.222,9.76,6.327,15.303,6.327s11.084-2.107,15.303-6.327l21.656-21.653l62.604,58.689v2.452H309.336z M309.336,339.593
		l-56.479-52.949l56.246-56.24c0.136,0.75,0.232,1.514,0.232,2.305L309.336,339.593L309.336,339.593z"/>
	<g>
		<path fill="#00AEEF" d="M105.347,172.016c24.001,0,43.528,19.525,43.528,43.526s-19.527,43.526-43.528,43.526
			S61.82,239.544,61.82,215.543S81.346,172.016,105.347,172.016 M105.347,163.516c-28.734,0-52.027,23.293-52.027,52.026
			c0,28.732,23.293,52.026,52.027,52.026c28.734,0,52.028-23.294,52.028-52.026C157.375,186.809,134.081,163.516,105.347,163.516
			L105.347,163.516z"/>
	</g>
	<g>
		<path fill="#EF4880" d="M333.727,284.317c0-1.549,0.709-2.323,2.13-2.323h46.646c0.838,0,1.435,0.235,1.791,0.705
			c0.354,0.469,0.532,1.06,0.532,1.771v8.548c0,0.583-0.202,1.101-0.605,1.554c-0.403,0.455-1.008,0.681-1.814,0.681h-34.404v14.662
			h26.517c0.646-0.064,1.161,0.072,1.549,0.411c0.387,0.339,0.581,0.911,0.581,1.718v8.758c0,0.58-0.162,1.098-0.484,1.55
			c-0.323,0.452-0.839,0.677-1.549,0.677h-26.613v17.564h35.662c0.902,0,1.5,0.194,1.791,0.583c0.291,0.39,0.436,0.987,0.436,1.797
			v8.84c0,1.358-0.71,2.039-2.129,2.039h-47.904c-0.58,0-1.08-0.16-1.5-0.483c-0.419-0.322-0.629-0.838-0.629-1.549L333.727,284.317
			L333.727,284.317z"/>
		<path fill="#58595B" d="M390.414,293.003c0.822-0.401,1.846-0.604,3.072-0.604h4.888c0.935,0,1.628,0.308,2.081,0.924
			c0.451,0.615,0.757,1.296,0.919,2.04l0.532,4.665c0.742-1.102,1.597-2.161,2.564-3.182s2.121-1.917,3.459-2.695
			c1.339-0.777,2.904-1.4,4.694-1.869c1.79-0.47,3.878-0.705,6.266-0.705c2.258,0,4.307,0.218,6.146,0.655
			c1.839,0.437,3.5,1.085,4.983,1.942c1.484,0.858,2.822,1.911,4.017,3.157c1.192,1.246,2.273,2.68,3.242,4.297
			c0.773-1.521,1.821-2.913,3.146-4.175c1.322-1.264,2.846-2.339,4.573-3.229c1.725-0.893,3.621-1.579,5.686-2.065
			c2.064-0.483,4.209-0.728,6.437-0.728c3.806,0,7.152,0.692,10.041,2.08c2.887,1.387,5.298,3.29,7.233,5.71
			c1.937,2.419,3.396,5.241,4.38,8.468c0.982,3.227,1.476,6.678,1.476,10.354v32.274c0,1.161-0.274,2.041-0.822,2.638
			c-0.549,0.598-1.339,0.896-2.371,0.896H469.7c-1.291,0-2.153-0.241-2.589-0.726c-0.436-0.482-0.653-1.338-0.653-2.563v-32.484
			c0-1.708-0.242-3.367-0.726-4.979c-0.484-1.611-1.234-3.037-2.25-4.278c-1.017-1.24-2.291-2.239-3.823-2.996
			c-1.533-0.758-3.363-1.137-5.492-1.137c-1.774,0-3.42,0.313-4.936,0.941c-1.518,0.631-2.823,1.532-3.921,2.708
			c-1.097,1.177-1.959,2.595-2.589,4.253c-0.629,1.66-0.942,3.506-0.942,5.536v32.243c0,2.32-1.05,3.479-3.146,3.479h-7.403
			c-1.291,0-2.146-0.241-2.564-0.726c-0.419-0.482-0.629-1.338-0.629-2.563v-32.437c0-1.676-0.234-3.312-0.701-4.906
			c-0.468-1.597-1.194-3.021-2.178-4.277c-0.985-1.257-2.25-2.272-3.799-3.046s-3.388-1.16-5.517-1.16
			c-1.484,0-2.969,0.282-4.452,0.846c-1.483,0.564-2.831,1.378-4.041,2.441c-1.21,1.063-2.201,2.369-2.976,3.915
			c-0.774,1.548-1.178,3.304-1.209,5.27v33.79c0,0.838-0.275,1.522-0.823,2.056c-0.549,0.531-1.242,0.797-2.081,0.797h-7.983
			c-1.064,0-1.848-0.249-2.348-0.75c-0.5-0.499-0.75-1.218-0.75-2.152v-55.695C389.18,294.156,389.591,293.406,390.414,293.003z"/>
		<path fill="#58595B" d="M547.215,350.996c0,0.58-0.121,1.058-0.362,1.427c-0.242,0.372-0.557,0.662-0.943,0.872
			s-0.831,0.354-1.331,0.437c-0.5,0.081-1.025,0.12-1.573,0.12h-6.049c-1.033,0-1.75-0.273-2.153-0.822
			c-0.402-0.549-0.7-1.241-0.895-2.08l-0.29-4.113c-1.13,1.129-2.379,2.187-3.75,3.169c-1.372,0.985-2.848,1.84-4.428,2.565
			c-1.581,0.726-3.26,1.289-5.032,1.693c-1.775,0.401-3.599,0.604-5.468,0.604c-2.904,0-5.702-0.379-8.396-1.137
			c-2.693-0.758-5.219-1.822-7.573-3.193c-2.354-1.372-4.491-3.024-6.411-4.961c-1.919-1.935-3.563-4.08-4.936-6.436
			c-1.372-2.354-2.436-4.888-3.193-7.597c-0.759-2.711-1.138-5.532-1.138-8.47c0-2.935,0.379-5.758,1.138-8.468
			c0.758-2.709,1.822-5.241,3.193-7.597c1.371-2.354,3.016-4.491,4.936-6.41s4.058-3.565,6.411-4.938
			c2.354-1.37,4.88-2.436,7.573-3.193s5.492-1.138,8.396-1.138c2.063,0,4.031,0.218,5.902,0.653s3.621,1.049,5.25,1.839
			s3.138,1.742,4.524,2.855c1.386,1.112,2.645,2.33,3.773,3.652l0.679-5.178c0.161-0.58,0.313-1.057,0.459-1.428
			c0.145-0.371,0.321-0.669,0.531-0.896c0.209-0.226,0.477-0.379,0.8-0.459c0.321-0.08,0.726-0.121,1.209-0.121h4.839
			c0.516,0,1.031,0.048,1.548,0.146c0.516,0.097,0.983,0.251,1.403,0.46c0.419,0.211,0.75,0.5,0.991,0.871
			c0.242,0.371,0.363,0.83,0.363,1.379v55.892H547.215z M496.892,323.075c0,2.582,0.451,5.026,1.355,7.332
			c0.902,2.306,2.161,4.33,3.773,6.072c1.613,1.742,3.509,3.122,5.687,4.138c2.177,1.018,4.556,1.523,7.137,1.523
			c2.613,0,5.058-0.507,7.331-1.523c2.274-1.016,4.25-2.396,5.927-4.138c1.678-1.742,3-3.768,3.969-6.072
			c0.968-2.306,1.45-4.75,1.45-7.332c0-2.547-0.482-4.975-1.45-7.282c-0.969-2.306-2.291-4.33-3.969-6.071
			c-1.678-1.742-3.652-3.129-5.927-4.161c-2.273-1.032-4.718-1.549-7.331-1.549c-2.581,0-4.96,0.517-7.137,1.549
			s-4.073,2.419-5.687,4.161c-1.612,1.741-2.871,3.767-3.773,6.071C497.343,318.101,496.892,320.528,496.892,323.075z"/>
		<path fill="#58595B" d="M552.633,273.924c0-1.941,0.951-2.912,2.855-2.912h8.129c0.903,0,1.629,0.242,2.178,0.729
			c0.548,0.485,0.822,1.214,0.822,2.186v7.235c0,0.745-0.258,1.449-0.774,2.113c-0.516,0.664-1.242,0.995-2.177,0.995h-8.129
			c-1.936,0-2.903-1.035-2.903-3.108L552.633,273.924L552.633,273.924z M552.633,295.349c0-0.838,0.242-1.539,0.727-2.104
			c0.483-0.563,1.192-0.847,2.129-0.847h8.032c0.354,0,0.718,0.072,1.089,0.219c0.37,0.146,0.702,0.354,0.991,0.628
			c0.291,0.275,0.533,0.59,0.727,0.944c0.193,0.354,0.29,0.742,0.29,1.16v55.6c0,1.937-1.017,2.902-3.048,2.902h-8.032
			c-1.935,0-2.903-0.967-2.903-2.902L552.633,295.349L552.633,295.349z"/>
		<path fill="#58595B" d="M575.133,277.059c0-0.838,0.226-1.531,0.677-2.08c0.452-0.549,1.146-0.823,2.081-0.823h8.47
			c0.645,0,1.25,0.274,1.813,0.823c0.564,0.549,0.847,1.242,0.847,2.08v73.89c0,0.967-0.267,1.693-0.798,2.177
			c-0.532,0.483-1.251,0.727-2.153,0.727h-8.081c-1.033,0-1.767-0.242-2.202-0.727c-0.437-0.483-0.653-1.21-0.653-2.177V277.059z"/>
		<path fill="#00AEEF" d="M667.554,339.625c-2.193,2.709-4.582,5.049-7.162,7.017c-2.58,1.97-5.273,3.598-8.08,4.888
			c-2.808,1.291-5.679,2.243-8.613,2.854c-2.938,0.613-5.855,0.921-8.758,0.921c-5.743,0-11.129-1.033-16.162-3.098
			c-5.033-2.063-9.421-4.902-13.162-8.517c-3.742-3.612-6.711-7.871-8.904-12.774c-2.193-4.902-3.29-10.193-3.29-15.872
			c0-5.548,1.08-10.757,3.242-15.628c2.161-4.872,5.129-9.111,8.904-12.727c3.773-3.612,8.177-6.468,13.21-8.564
			c5.032-2.097,10.418-3.146,16.162-3.146c6.644,0,12.692,1.354,18.146,4.063c5.451,2.71,10.08,6.323,13.888,10.839l-10.145,10.355
			c-2.899-3.936-6.151-6.758-9.758-8.468c-3.608-1.709-7.633-2.565-12.077-2.565c-3.671,0-7.118,0.679-10.338,2.032
			c-3.222,1.355-6.038,3.211-8.455,5.564c-2.417,2.355-4.316,5.099-5.701,8.227c-1.385,3.13-2.076,6.469-2.076,10.016
			c0,3.614,0.691,6.985,2.076,10.114c1.384,3.13,3.283,5.888,5.698,8.273c2.413,2.388,5.229,4.259,8.449,5.612
			c3.218,1.355,6.662,2.032,10.333,2.032c3.477,0,6.759-0.645,9.85-1.936c3.089-1.289,5.858-3,8.305-5.129v-7.452h-15.871v-12.774
			h30.291L667.554,339.625L667.554,339.625z"/>
		<path fill="#00AEEF" d="M726.201,302.463c0,3.678-0.695,7.113-2.086,10.308c-1.393,3.192-3.283,5.968-5.676,8.322
			c-2.392,2.355-5.207,4.194-8.439,5.517c-3.234,1.323-6.662,1.983-10.284,1.983H686.91v25.259h-15v-77.323h27.825
			c3.619,0,7.043,0.661,10.275,1.983c3.231,1.322,6.043,3.145,8.436,5.468c2.391,2.322,4.281,5.064,5.67,8.227
			C725.507,295.368,726.201,298.785,726.201,302.463z M711.199,302.27c0-2-0.372-3.871-1.113-5.613
			c-0.742-1.742-1.758-3.258-3.048-4.549c-1.291-1.29-2.806-2.322-4.548-3.097s-3.615-1.161-5.613-1.161h-9.968v29.227h9.968
			c1.999,0,3.871-0.402,5.613-1.209c1.742-0.808,3.257-1.888,4.548-3.243c1.29-1.354,2.306-2.918,3.048-4.692
			C710.827,306.156,711.199,304.27,711.199,302.27z"/>
		<path fill="#00AEEF" d="M781.652,289.882h-21.389v63.97H745.07v-63.97h-21.389v-13.354h57.971V289.882z"/>
	</g>
	<circle fill="#EF4880" cx="105.347" cy="215.543" r="52.028"/>
	<g>
		<g>
			<g id="XMLID_283_">
				<g>
					
						<path fill="none" stroke="#FFFFFF" stroke-width="2" stroke-linecap="round" stroke-linejoin="round" stroke-miterlimit="10" stroke-dasharray="24,4" d="
						M100.209,245.546c0,0.971-0.777,1.746-1.735,1.746c-0.969,0-1.755-0.775-1.755-1.746c0-0.948,0.786-1.732,1.755-1.732
						C99.433,243.813,100.209,244.597,100.209,245.546z"/>
					
						<path fill="none" stroke="#FFFFFF" stroke-width="2" stroke-linecap="round" stroke-linejoin="round" stroke-miterlimit="10" stroke-dasharray="24,4" d="
						M112.635,246.209c0.959,0,1.736,0.774,1.736,1.733c0,0.96-0.777,1.736-1.736,1.736c-0.966,0-1.743-0.776-1.743-1.736
						C110.892,246.983,111.669,246.209,112.635,246.209z"/>
					
						<path fill="none" stroke="#FFFFFF" stroke-width="2" stroke-linecap="round" stroke-linejoin="round" stroke-miterlimit="10" stroke-dasharray="24,4" d="
						M70.005,211.35c0.057,0.258,0.057,0.517,0,0.766c-0.145,0.623-0.623,1.159-1.295,1.323c-0.939,0.21-1.879-0.365-2.098-1.305
						c-0.222-0.94,0.355-1.869,1.293-2.092C68.844,209.824,69.782,210.408,70.005,211.35z"/>
					
						<path fill="none" stroke="#FFFFFF" stroke-width="2" stroke-linecap="round" stroke-linejoin="round" stroke-miterlimit="10" stroke-dasharray="24,4" d="
						M70.435,224.184c0.536,0.809,0.327,1.891-0.461,2.428c-0.794,0.547-1.877,0.347-2.422-0.461
						c-0.536-0.783-0.328-1.867,0.46-2.406C68.807,223.199,69.89,223.4,70.435,224.184z"/>
					
						<path fill="none" stroke="#FFFFFF" stroke-width="2" stroke-linecap="round" stroke-linejoin="round" stroke-miterlimit="10" stroke-dasharray="24,4" d="
						M99.853,186.162c0.969,0,1.744,0.777,1.744,1.744c0,0.949-0.774,1.736-1.744,1.736c-0.959,0-1.733-0.787-1.733-1.736
						C98.12,186.939,98.894,186.162,99.853,186.162z"/>
					
						<path fill="none" stroke="#FFFFFF" stroke-width="2" stroke-linecap="round" stroke-linejoin="round" stroke-miterlimit="10" stroke-dasharray="24,4" d="
						M113.317,184.859c0,0.958-0.777,1.734-1.736,1.734c-0.965,0-1.733-0.776-1.733-1.734c0-0.959,0.768-1.746,1.733-1.746
						C112.541,183.113,113.317,183.9,113.317,184.859z"/>
					
						<path fill="none" stroke="#FFFFFF" stroke-width="2" stroke-linecap="round" stroke-linejoin="round" stroke-miterlimit="10" stroke-dasharray="24,4" d="
						M138.367,196.842c0,0.97-0.777,1.735-1.746,1.735c-0.957,0-1.734-0.767-1.734-1.735c0-0.957,0.778-1.741,1.734-1.741
						C137.59,195.1,138.367,195.885,138.367,196.842z"/>
					
						<path fill="none" stroke="#FFFFFF" stroke-width="2" stroke-linecap="round" stroke-linejoin="round" stroke-miterlimit="10" stroke-dasharray="24,4" d="
						M128.631,183.324c0,0.959-0.777,1.736-1.746,1.736c-0.949,0-1.734-0.777-1.734-1.736c0-0.969,0.785-1.733,1.734-1.733
						C127.854,181.591,128.631,182.355,128.631,183.324z"/>
					
						<path fill="none" stroke="#FFFFFF" stroke-width="2" stroke-linecap="round" stroke-linejoin="round" stroke-miterlimit="10" stroke-dasharray="24,4" d="
						M93.432,228.154c0,1.063-0.852,1.918-1.915,1.918c-0.758,0-1.418-0.44-1.726-1.094c-0.116-0.249-0.183-0.527-0.183-0.824
						c0-1.055,0.854-1.918,1.908-1.918C92.58,226.236,93.432,227.1,93.432,228.154z"/>
					
						<path fill="none" stroke="#FFFFFF" stroke-width="2" stroke-linecap="round" stroke-linejoin="round" stroke-miterlimit="10" stroke-dasharray="24,4" d="
						M87.781,218.299c1.06,0,1.925,0.863,1.925,1.918c0,1.064-0.865,1.907-1.925,1.907c-1.057,0-1.908-0.843-1.908-1.907
						C85.873,219.162,86.724,218.299,87.781,218.299z"/>
					
						<path fill="none" stroke="#FFFFFF" stroke-width="2" stroke-linecap="round" stroke-linejoin="round" stroke-miterlimit="10" stroke-dasharray="24,4" d="
						M94.785,205.711c1.054,0,1.908,0.863,1.908,1.918c0,1.054-0.854,1.908-1.908,1.908c-1.054,0-1.918-0.854-1.918-1.908
						C92.867,206.574,93.731,205.711,94.785,205.711z"/>
					
						<path fill="none" stroke="#FFFFFF" stroke-width="2" stroke-linecap="round" stroke-linejoin="round" stroke-miterlimit="10" stroke-dasharray="24,4" d="
						M118.548,207.984c0,1.052-0.852,1.915-1.915,1.915c-1.055,0-1.908-0.863-1.908-1.915c0-1.065,0.854-1.909,1.908-1.909
						c0.882,0,1.618,0.574,1.838,1.382C118.521,207.629,118.548,207.802,118.548,207.984z"/>
					
						<path fill="none" stroke="#FFFFFF" stroke-width="2" stroke-linecap="round" stroke-linejoin="round" stroke-miterlimit="10" stroke-dasharray="24,4" d="
						M125.316,220.476c0,0.01,0,0.02,0,0.027c0,1.056-0.845,1.918-1.908,1.918c-1.054,0-1.918-0.862-1.918-1.918
						c0-1.063,0.864-1.907,1.918-1.907C124.461,218.596,125.296,219.422,125.316,220.476z"/>
					
						<path fill="none" stroke="#FFFFFF" stroke-width="2" stroke-linecap="round" stroke-linejoin="round" stroke-miterlimit="10" stroke-dasharray="24,4" d="
						M121.194,228.605c0,1.054-0.853,1.917-1.905,1.917c-1.056,0-1.917-0.863-1.917-1.917c0-1.056,0.861-1.918,1.917-1.918
						C120.341,226.688,121.194,227.552,121.194,228.605z"/>
					
						<path fill="none" stroke="#FFFFFF" stroke-width="2" stroke-linecap="round" stroke-linejoin="round" stroke-miterlimit="10" stroke-dasharray="24,4" d="
						M141.595,208.587c0.921,0.221,1.514,1.16,1.286,2.09c-0.212,0.94-1.15,1.516-2.09,1.305c-0.939-0.229-1.514-1.16-1.292-2.099
						C139.717,208.951,140.656,208.366,141.595,208.587z"/>
					
						<path fill="none" stroke="#FFFFFF" stroke-width="2" stroke-linecap="round" stroke-linejoin="round" stroke-miterlimit="10" stroke-dasharray="24,4" d="
						M142.113,222.709c0.785,0.539,0.996,1.619,0.459,2.416c-0.556,0.795-1.63,0.997-2.424,0.451
						c-0.795-0.537-0.997-1.621-0.459-2.416C140.236,222.364,141.319,222.164,142.113,222.709z"/>
					
						<path fill="none" stroke="#FFFFFF" stroke-width="2" stroke-linecap="round" stroke-linejoin="round" stroke-miterlimit="10" stroke-dasharray="24,4" d="
						M84.763,183.938c0,0.969-0.778,1.734-1.737,1.734c-0.956,0-1.733-0.767-1.733-1.734c0-0.959,0.777-1.735,1.733-1.735
						C83.984,182.202,84.763,182.979,84.763,183.938z"/>
					
						<path fill="none" stroke="#FFFFFF" stroke-width="2" stroke-linecap="round" stroke-linejoin="round" stroke-miterlimit="10" stroke-dasharray="24,4" d="
						M74.354,197.293c0,0.957-0.775,1.736-1.733,1.736c-0.966,0-1.743-0.779-1.743-1.736c0-0.969,0.777-1.744,1.743-1.744
						C73.579,195.549,74.354,196.324,74.354,197.293z"/>
					
						<path fill="none" stroke="#FFFFFF" stroke-width="2" stroke-linecap="round" stroke-linejoin="round" stroke-miterlimit="10" stroke-dasharray="24,4" d="
						M125.316,220.476c-0.02-1.055-0.854-1.88-1.908-1.88c-1.054,0-1.918,0.844-1.918,1.907c0,1.056,0.864,1.918,1.918,1.918
						c1.063,0,1.908-0.862,1.908-1.918C125.316,220.495,125.316,220.485,125.316,220.476z M116.634,209.899
						c1.063,0,1.915-0.863,1.915-1.915c0-0.185-0.027-0.355-0.077-0.527c-0.22-0.808-0.956-1.382-1.838-1.382
						c-1.055,0-1.908,0.844-1.908,1.909C114.726,209.036,115.579,209.899,116.634,209.899z M118.443,191.262
						c2.235,0,4.254,0.902,5.722,2.358v0.01c1.437,1.429,2.336,3.394,2.375,5.57h0.145c1.532,0.72,2.711,2.062,3.201,3.711
						l0.163-0.029c1.763,0.901,3.143,2.416,3.853,4.275c0.363,0.901,0.556,1.898,0.556,2.934c0,1.517-0.423,2.954-1.15,4.161
						l-0.078,0.077c1.562,1.478,2.541,3.566,2.541,5.887c0,2.321-0.979,4.421-2.549,5.896l-0.183,0.049
						c0.238,0.765,0.363,1.57,0.363,2.416c0,0.892-0.114,1.753-0.334,2.549c-0.861,3.213-3.391,5.515-6.966,5.515
						c-0.738,2.463-3.02,4.256-5.721,4.256c-1.199,0-2.31-0.355-3.231-0.96c-0.757,0.298-1.562,0.47-2.414,0.47
						c-3.564,0-6.488-2.924-6.488-6.488v-35.686c0-1.783,0.73-3.402,1.907-4.582l1.544-1.152l3.037-0.756
						c0.296,0,0.595,0.021,0.881,0.066l0.01-0.047C116.499,191.436,117.447,191.262,118.443,191.262z M119.289,230.522
						c1.052,0,1.905-0.863,1.905-1.917c0-1.056-0.853-1.918-1.905-1.918c-1.056,0-1.917,0.862-1.917,1.918
						C117.371,229.659,118.232,230.522,119.289,230.522z"/>
					
						<path fill="none" stroke="#FFFFFF" stroke-width="2" stroke-linecap="round" stroke-linejoin="round" stroke-miterlimit="10" stroke-dasharray="24,4" d="
						M89.706,220.217c0-1.055-0.865-1.918-1.925-1.918c-1.057,0-1.908,0.863-1.908,1.918c0,1.064,0.851,1.907,1.908,1.907
						C88.841,222.124,89.706,221.281,89.706,220.217z M91.517,230.072c1.063,0,1.915-0.854,1.915-1.918
						c0-1.055-0.852-1.918-1.915-1.918c-1.054,0-1.908,0.863-1.908,1.918c0,0.297,0.066,0.575,0.183,0.824
						C90.099,229.632,90.759,230.072,91.517,230.072z M96.693,207.629c0-1.055-0.854-1.918-1.908-1.918
						c-1.054,0-1.918,0.863-1.918,1.918c0,1.054,0.864,1.908,1.918,1.908C95.839,209.537,96.693,208.682,96.693,207.629z
						 M102.757,198.232v35.686c0,3.564-2.921,6.488-6.488,6.488c-0.842,0-1.656-0.172-2.396-0.47
						c-0.939,0.604-2.049,0.96-3.238,0.96c-2.703,0-4.984-1.793-5.721-4.256c-4.473,0-7.293-3.605-7.293-8.063
						c0-0.979,0.174-1.919,0.488-2.791l-0.324,0.308c-1.572-1.478-2.541-3.566-2.541-5.878c0-2.329,0.979-4.421,2.541-5.896
						l-0.067-0.067c-0.738-1.207-1.15-2.646-1.15-4.16c0-3.145,1.783-5.867,4.388-7.209l0.171,0.028
						c0.49-1.649,1.669-2.991,3.193-3.711h0.162c0.087-4.4,3.672-7.938,8.077-7.938c0.997,0,1.946,0.174,2.827,0.5l0.011,0.047
						c0.288-0.047,0.575-0.066,0.871-0.066c1.784,0,3.402,0.729,4.581,1.908C102.03,194.83,102.757,196.449,102.757,198.232z"/>
				</g>
				<g>
					
						<line fill="none" stroke="#FFFFFF" stroke-width="2" stroke-linecap="round" stroke-linejoin="round" stroke-miterlimit="2.6131" stroke-dasharray="24,4" x1="108.247" y1="198.232" x2="108.247" y2="233.918"/>
					
						<path fill="none" stroke="#FFFFFF" stroke-width="2" stroke-linecap="round" stroke-linejoin="round" stroke-miterlimit="2.6131" stroke-dasharray="24,4" d="
						M108.247,233.918c0,3.564,2.924,6.488,6.488,6.488c0.852,0,1.656-0.172,2.414-0.47c0.921,0.604,2.032,0.96,3.231,0.96
						c2.701,0,4.983-1.793,5.721-4.256c0.171-0.56,0.258-1.134,0.258-1.734c0-3.021-2.234-5.525-5.146-5.928"/>
					
						<path fill="none" stroke="#FFFFFF" stroke-width="2" stroke-linecap="round" stroke-linejoin="round" stroke-miterlimit="2.6131" stroke-dasharray="24,4" d="
						M121.213,198.232c0-3.271-2.443-5.992-5.597-6.424c-0.287-0.047-0.585-0.066-0.881-0.066l-3.037,0.756l-1.544,1.152
						c-1.177,1.18-1.907,2.799-1.907,4.582"/>
					
						<path fill="none" stroke="#FFFFFF" stroke-width="2" stroke-linecap="round" stroke-linejoin="round" stroke-miterlimit="2.6131" stroke-dasharray="24,4" d="
						M126.101,236.641c3.575,0,6.104-2.302,6.966-5.515c0.22-0.796,0.334-1.657,0.334-2.549c0-0.846-0.125-1.65-0.363-2.416
						c-1.024-3.291-4.101-5.687-7.722-5.687h-0.013"/>
					
						<path fill="none" stroke="#FFFFFF" stroke-width="2" stroke-linecap="round" stroke-linejoin="round" stroke-miterlimit="2.6131" stroke-dasharray="24,4" d="
						M133.221,226.113c1.57-1.477,2.549-3.576,2.549-5.896c0-2.32-0.979-4.41-2.541-5.888c-1.445-1.371-3.4-2.215-5.546-2.215"/>
					
						<path fill="none" stroke="#FFFFFF" stroke-width="2" stroke-linecap="round" stroke-linejoin="round" stroke-miterlimit="2.6131" stroke-dasharray="24,4" d="
						M133.307,214.253c0.727-1.207,1.15-2.646,1.15-4.16c0-1.035-0.192-2.032-0.556-2.935c-0.709-1.859-2.09-3.374-3.853-4.275"/>
					
						<path fill="none" stroke="#FFFFFF" stroke-width="2" stroke-linecap="round" stroke-linejoin="round" stroke-miterlimit="2.6131" stroke-dasharray="24,4" d="
						M124.166,193.621c-1.468-1.456-3.487-2.358-5.722-2.358c-0.996,0-1.945,0.174-2.816,0.5"/>
					
						<path fill="none" stroke="#FFFFFF" stroke-width="2" stroke-linecap="round" stroke-linejoin="round" stroke-miterlimit="2.6131" stroke-dasharray="24,4" d="
						M118.443,207.457c0,0,0.021,0,0.028,0c4.466-0.021,8.069-3.645,8.069-8.103c0-0.046,0-0.106,0-0.153
						c-0.04-2.178-0.938-4.143-2.375-5.57"/>
					
						<path fill="none" stroke="#FFFFFF" stroke-width="2" stroke-linecap="round" stroke-linejoin="round" stroke-miterlimit="2.6131" stroke-dasharray="24,4" d="
						M124.166,210.621c3.294,0,5.979-2.686,5.979-5.983c0-0.604-0.086-1.181-0.259-1.726c-0.49-1.649-1.668-2.991-3.201-3.711"/>
					
						<path fill="none" stroke="#FFFFFF" stroke-width="2" stroke-linecap="round" stroke-linejoin="round" stroke-miterlimit="2.6131" stroke-dasharray="24,4" d="
						M102.757,233.918c0,3.564-2.921,6.488-6.488,6.488c-0.842,0-1.656-0.172-2.396-0.47c-0.939,0.604-2.049,0.96-3.238,0.96
						c-2.703,0-4.984-1.793-5.721-4.256c-0.172-0.56-0.259-1.134-0.259-1.734c0-3.021,2.225-5.515,5.136-5.928H89.8"/>
					
						<path fill="none" stroke="#FFFFFF" stroke-width="2" stroke-linecap="round" stroke-linejoin="round" stroke-miterlimit="2.6131" stroke-dasharray="24,4" d="
						M89.8,198.232c0-3.271,2.453-6.002,5.598-6.424c0.288-0.047,0.575-0.066,0.871-0.066c1.784,0,3.402,0.729,4.581,1.908
						c1.18,1.18,1.907,2.799,1.907,4.582"/>
					
						<path fill="none" stroke="#FFFFFF" stroke-width="2" stroke-linecap="round" stroke-linejoin="round" stroke-miterlimit="2.6131" stroke-dasharray="24,4" d="
						M84.914,236.641c-4.473,0-7.293-3.605-7.293-8.063c0-0.979,0.174-1.919,0.488-2.791c1.141-3.098,4.113-5.312,7.602-5.312"/>
					
						<path fill="none" stroke="#FFFFFF" stroke-width="2" stroke-linecap="round" stroke-linejoin="round" stroke-miterlimit="2.6131" stroke-dasharray="24,4" d="
						M77.806,226.113c-0.011-0.012-0.011-0.012-0.021-0.02c-1.572-1.478-2.541-3.566-2.541-5.878c0-2.329,0.979-4.421,2.541-5.896
						c1.447-1.371,3.403-2.205,5.546-2.205"/>
					
						<path fill="none" stroke="#FFFFFF" stroke-width="2" stroke-linecap="round" stroke-linejoin="round" stroke-miterlimit="2.6131" stroke-dasharray="24,4" d="
						M77.719,214.253c-0.738-1.207-1.15-2.646-1.15-4.16c0-3.145,1.783-5.867,4.388-7.21"/>
					
						<path fill="none" stroke="#FFFFFF" stroke-width="2" stroke-linecap="round" stroke-linejoin="round" stroke-miterlimit="2.6131" stroke-dasharray="24,4" d="
						M92.56,207.457c-4.455,0-8.077-3.635-8.077-8.103c0-0.046,0-0.106,0-0.153c0.087-4.401,3.672-7.938,8.077-7.938
						c0.997,0,1.946,0.174,2.827,0.5"/>
					
						<path fill="none" stroke="#FFFFFF" stroke-width="2" stroke-linecap="round" stroke-linejoin="round" stroke-miterlimit="2.6131" stroke-dasharray="24,4" d="
						M86.849,210.621c-3.305,0-5.978-2.686-5.978-5.983c0-0.604,0.085-1.181,0.257-1.726c0.49-1.649,1.669-2.991,3.193-3.711"/>
					
						<line fill="none" stroke="#FFFFFF" stroke-width="2" stroke-linecap="round" stroke-linejoin="round" stroke-miterlimit="2.6131" stroke-dasharray="24,4" x1="102.757" y1="198.232" x2="102.757" y2="233.918"/>
					
						<line fill="none" stroke="#FFFFFF" stroke-width="2" stroke-linecap="round" stroke-linejoin="round" stroke-miterlimit="2.6131" stroke-dasharray="24,4" x1="111.699" y1="186.594" x2="111.699" y2="192.498"/>
					
						<path fill="none" stroke="#FFFFFF" stroke-width="2" stroke-linecap="round" stroke-linejoin="round" stroke-miterlimit="2.6131" stroke-dasharray="24,4" d="
						M111.582,183.113c0.959,0,1.736,0.787,1.736,1.746c0,0.958-0.777,1.734-1.736,1.734c-0.965,0-1.733-0.776-1.733-1.734
						C109.849,183.9,110.616,183.113,111.582,183.113z"/>
					
						<line fill="none" stroke="#FFFFFF" stroke-width="2" stroke-linecap="round" stroke-linejoin="round" stroke-miterlimit="2.6131" stroke-dasharray="24,4" x1="99.853" y1="189.643" x2="99.853" y2="192.365"/>
					
						<path fill="none" stroke="#FFFFFF" stroke-width="2" stroke-linecap="round" stroke-linejoin="round" stroke-miterlimit="2.6131" stroke-dasharray="24,4" d="
						M99.853,186.162c0.969,0,1.744,0.777,1.744,1.744c0,0.949-0.774,1.736-1.744,1.736c-0.959,0-1.733-0.787-1.733-1.736
						C98.12,186.939,98.894,186.162,99.853,186.162z"/>
					
						<polyline fill="none" stroke="#FFFFFF" stroke-width="2" stroke-linecap="round" stroke-linejoin="round" stroke-miterlimit="2.6131" stroke-dasharray="24,4" points="
						136.622,198.577 136.622,204.233 133.901,207.158 					"/>
					
						<path fill="none" stroke="#FFFFFF" stroke-width="2" stroke-linecap="round" stroke-linejoin="round" stroke-miterlimit="2.6131" stroke-dasharray="24,4" d="
						M136.622,195.1c0.969,0,1.746,0.784,1.746,1.742c0,0.969-0.777,1.734-1.746,1.734c-0.957,0-1.734-0.767-1.734-1.734
						C134.887,195.885,135.665,195.1,136.622,195.1z"/>
					
						<polyline fill="none" stroke="#FFFFFF" stroke-width="2" stroke-linecap="round" stroke-linejoin="round" stroke-miterlimit="2.6131" stroke-dasharray="24,4" points="
						126.885,185.061 126.885,190.707 124.166,193.621 124.166,193.631 					"/>
					
						<path fill="none" stroke="#FFFFFF" stroke-width="2" stroke-linecap="round" stroke-linejoin="round" stroke-miterlimit="2.6131" stroke-dasharray="24,4" d="
						M126.885,181.591c0.968,0,1.746,0.766,1.746,1.733c0,0.959-0.777,1.736-1.746,1.736c-0.949,0-1.734-0.777-1.734-1.736
						C125.151,182.355,125.937,181.591,126.885,181.591z"/>
					
						<polyline fill="none" stroke="#FFFFFF" stroke-width="2" stroke-linecap="round" stroke-linejoin="round" stroke-miterlimit="2.6131" stroke-dasharray="24,4" points="
						140.79,211.98 139.506,217.465 136.181,219.699 					"/>
					
						<path fill="none" stroke="#FFFFFF" stroke-width="2" stroke-linecap="round" stroke-linejoin="round" stroke-miterlimit="2.6131" stroke-dasharray="24,4" d="
						M141.595,208.587c0.921,0.221,1.514,1.16,1.286,2.09c-0.212,0.94-1.15,1.516-2.09,1.305c-0.939-0.229-1.514-1.16-1.292-2.099
						C139.717,208.951,140.656,208.366,141.595,208.587z"/>
					
						<polyline fill="none" stroke="#FFFFFF" stroke-width="2" stroke-linecap="round" stroke-linejoin="round" stroke-miterlimit="2.6131" stroke-dasharray="24,4" points="
						140.148,225.576 136.968,230.244 133.066,231.127 					"/>
					
						<path fill="none" stroke="#FFFFFF" stroke-width="2" stroke-linecap="round" stroke-linejoin="round" stroke-miterlimit="2.6131" stroke-dasharray="24,4" d="
						M142.113,222.709c0.785,0.539,0.996,1.619,0.459,2.416c-0.556,0.795-1.63,0.997-2.424,0.451
						c-0.795-0.537-0.997-1.621-0.459-2.416C140.236,222.364,141.319,222.164,142.113,222.709z"/>
					
						<polyline fill="none" stroke="#FFFFFF" stroke-width="2" stroke-linecap="round" stroke-linejoin="round" stroke-miterlimit="2.6131" stroke-dasharray="24,4" points="
						77.172,206.919 76.894,201.646 74.165,198.721 					"/>
					
						<path fill="none" stroke="#FFFFFF" stroke-width="2" stroke-linecap="round" stroke-linejoin="round" stroke-miterlimit="2.6131" stroke-dasharray="24,4" d="
						M72.62,195.549c-0.966,0-1.743,0.775-1.743,1.744c0,0.957,0.777,1.736,1.743,1.736c0.958,0,1.733-0.779,1.733-1.736
						C74.354,196.324,73.579,195.549,72.62,195.549z"/>
					
						<polyline fill="none" stroke="#FFFFFF" stroke-width="2" stroke-linecap="round" stroke-linejoin="round" stroke-miterlimit="2.6131" stroke-dasharray="24,4" points="
						86.631,193.774 86.631,188.127 84.042,185.357 					"/>
					
						<path fill="none" stroke="#FFFFFF" stroke-width="2" stroke-linecap="round" stroke-linejoin="round" stroke-miterlimit="2.6131" stroke-dasharray="24,4" d="
						M83.026,182.202c-0.956,0-1.733,0.776-1.733,1.735c0,0.969,0.777,1.734,1.733,1.734c0.958,0,1.737-0.767,1.737-1.734
						C84.763,182.979,83.984,182.202,83.026,182.202z"/>
					
						<polyline fill="none" stroke="#FFFFFF" stroke-width="2" stroke-linecap="round" stroke-linejoin="round" stroke-miterlimit="2.6131" stroke-dasharray="24,4" points="
						75.188,219.65 73.319,214.34 70.005,212.115 					"/>
					
						<path fill="none" stroke="#FFFFFF" stroke-width="2" stroke-linecap="round" stroke-linejoin="round" stroke-miterlimit="2.6131" stroke-dasharray="24,4" d="
						M67.905,210.043c-0.938,0.223-1.515,1.15-1.293,2.092c0.219,0.938,1.159,1.515,2.098,1.305c0.672-0.164,1.15-0.7,1.295-1.323
						c0.057-0.249,0.057-0.508,0-0.766C69.782,210.408,68.844,209.824,67.905,210.043z"/>
					
						<polyline fill="none" stroke="#FFFFFF" stroke-width="2" stroke-linecap="round" stroke-linejoin="round" stroke-miterlimit="2.6131" stroke-dasharray="24,4" points="
						77.813,230.869 74.545,226.592 70.647,225.72 					"/>
					
						<path fill="none" stroke="#FFFFFF" stroke-width="2" stroke-linecap="round" stroke-linejoin="round" stroke-miterlimit="2.6131" stroke-dasharray="24,4" d="
						M68.013,223.744c-0.788,0.539-0.997,1.623-0.46,2.406c0.544,0.808,1.628,1.008,2.422,0.461
						c0.788-0.537,0.997-1.619,0.461-2.428C69.89,223.4,68.807,223.199,68.013,223.744z"/>
					
						<path fill="none" stroke="#FFFFFF" stroke-width="2" stroke-linecap="round" stroke-linejoin="round" stroke-miterlimit="2.6131" stroke-dasharray="24,4" d="
						M94.785,205.711c-1.054,0-1.918,0.863-1.918,1.918c0,1.054,0.864,1.908,1.918,1.908c1.054,0,1.908-0.854,1.908-1.908
						C96.693,206.574,95.838,205.711,94.785,205.711z"/>
					
						<path fill="none" stroke="#FFFFFF" stroke-width="2" stroke-linecap="round" stroke-linejoin="round" stroke-miterlimit="2.6131" stroke-dasharray="24,4" d="
						M91.517,226.236c-1.054,0-1.908,0.863-1.908,1.918c0,0.297,0.066,0.575,0.183,0.824c0.308,0.652,0.967,1.094,1.726,1.094
						c1.063,0,1.915-0.854,1.915-1.918C93.432,227.1,92.58,226.236,91.517,226.236z"/>
					
						<path fill="none" stroke="#FFFFFF" stroke-width="2" stroke-linecap="round" stroke-linejoin="round" stroke-miterlimit="2.6131" stroke-dasharray="24,4" d="
						M87.781,218.299c-1.057,0-1.908,0.863-1.908,1.918c0,1.064,0.851,1.907,1.908,1.907c1.06,0,1.925-0.843,1.925-1.907
						C89.706,219.162,88.841,218.299,87.781,218.299z"/>
					
						<path fill="none" stroke="#FFFFFF" stroke-width="2" stroke-linecap="round" stroke-linejoin="round" stroke-miterlimit="2.6131" stroke-dasharray="24,4" d="
						M116.634,206.075c-1.055,0-1.908,0.844-1.908,1.909c0,1.052,0.854,1.915,1.908,1.915c1.063,0,1.915-0.863,1.915-1.915
						c0-0.185-0.027-0.355-0.077-0.527C118.252,206.649,117.516,206.075,116.634,206.075z"/>
					
						<path fill="none" stroke="#FFFFFF" stroke-width="2" stroke-linecap="round" stroke-linejoin="round" stroke-miterlimit="2.6131" stroke-dasharray="24,4" d="
						M123.408,218.596c-1.054,0-1.918,0.844-1.918,1.907c0,1.056,0.864,1.918,1.918,1.918c1.063,0,1.908-0.862,1.908-1.918
						c0-0.009,0-0.019,0-0.027C125.296,219.422,124.461,218.596,123.408,218.596z"/>
					
						<path fill="none" stroke="#FFFFFF" stroke-width="2" stroke-linecap="round" stroke-linejoin="round" stroke-miterlimit="2.6131" stroke-dasharray="24,4" d="
						M119.289,226.688c-1.056,0-1.917,0.863-1.917,1.918c0,1.054,0.861,1.917,1.917,1.917c1.052,0,1.905-0.863,1.905-1.917
						C121.194,227.552,120.341,226.688,119.289,226.688z"/>
					
						<line fill="none" stroke="#FFFFFF" stroke-width="2" stroke-linecap="round" stroke-linejoin="round" stroke-miterlimit="2.6131" stroke-dasharray="24,4" x1="112.752" y1="246.209" x2="112.752" y2="240.293"/>
					
						<path fill="none" stroke="#FFFFFF" stroke-width="2" stroke-linecap="round" stroke-linejoin="round" stroke-miterlimit="2.6131" stroke-dasharray="24,4" d="
						M112.635,249.679c0.959,0,1.736-0.776,1.736-1.736c0-0.959-0.777-1.733-1.736-1.733c-0.966,0-1.743,0.774-1.743,1.733
						S111.669,249.679,112.635,249.679z"/>
					
						<line fill="none" stroke="#FFFFFF" stroke-width="2" stroke-linecap="round" stroke-linejoin="round" stroke-miterlimit="2.6131" stroke-dasharray="24,4" x1="98.588" y1="243.813" x2="98.588" y2="240.15"/>
					
						<path fill="none" stroke="#FFFFFF" stroke-width="2" stroke-linecap="round" stroke-linejoin="round" stroke-miterlimit="2.6131" stroke-dasharray="24,4" d="
						M98.474,247.292c0.958,0,1.735-0.775,1.735-1.746c0-0.948-0.777-1.732-1.735-1.732c-0.969,0-1.755,0.784-1.755,1.732
						C96.719,246.516,97.505,247.292,98.474,247.292z"/>
				</g>
			</g>
		</g>
	</g>
	<g>
		<path fill="#58595B" d="M540.695,263.91h-5.961l-2.596-5.608h-13.605l-2.63,5.608h-5.962l13.256-28.053h4.242L540.695,263.91z
			 M530,253.776l-4.664-10.1l-4.733,10.1H530z"/>
		<path fill="#58595B" d="M546.305,263.91h-5.436v-28.017h5.436V263.91z"/>
		<g>
			<path fill="#58595B" d="M454.42,246.248l-1.974,11.88l-2.493-11.88h-7.828l-2.494,11.88l-1.974-11.88h-6.649h-1.593h-2.771
				v-5.889l-7.965,2.217v3.672h-0.312h-2.355h-2.563v-0.275c0-0.855,0.242-1.427,0.727-1.716c0.484-0.29,1.085-0.434,1.802-0.434
				c0.53,0,0.957,0.053,1.28,0.155c0.323,0.104,0.601,0.214,0.831,0.329l0.52-4.605c-0.369-0.255-0.981-0.496-1.834-0.728
				c-0.854-0.23-1.859-0.347-3.014-0.347c-0.9,0-1.808,0.109-2.719,0.329c-0.913,0.221-1.749,0.594-2.511,1.126
				c-0.763,0.529-1.368,1.24-1.819,2.128c-0.45,0.892-0.675,2.005-0.675,3.344v0.692h-2.32v4.277
				c-0.087-0.171-0.179-0.339-0.275-0.503c-0.811-1.338-1.936-2.36-3.377-3.064c-1.443-0.704-3.136-1.056-5.074-1.056
				c-1.917,0-3.602,0.352-5.057,1.056c-1.454,0.704-2.586,1.728-3.395,3.064c-0.446,0.738-0.765,1.569-0.964,2.482
				c-0.278-1.464-0.947-2.664-2.011-3.592c-1.441-1.26-3.575-2.211-6.4-2.854l-3.82-0.881c-0.782-0.196-1.433-0.379-1.95-0.548
				c-0.519-0.168-0.776-0.419-0.776-0.755c0-0.25,0.09-0.476,0.271-0.671c0.183-0.195,0.489-0.35,0.923-0.462
				c0.434-0.11,1.015-0.168,1.742-0.168c1.679,0,3.237,0.28,4.68,0.84c1.439,0.562,2.817,1.301,4.133,2.225l3.945-6.296
				c-1.624-1.314-3.49-2.301-5.604-2.958s-4.497-0.985-7.154-0.985c-2.771,0-5.128,0.398-7.072,1.196
				c-1.168,0.478-2.166,1.072-3.001,1.779l7.561,15.122l2.428,0.533c0.839,0.197,1.419,0.393,1.742,0.589
				c0.321,0.196,0.482,0.49,0.482,0.88c0,0.253-0.078,0.472-0.231,0.651c-0.154,0.182-0.426,0.329-0.817,0.44
				c-0.393,0.112-0.924,0.167-1.596,0.167c-0.125,0-0.255-0.009-0.384-0.013l3.501,7.002c1.245-0.172,2.411-0.456,3.492-0.86
				c1.86-0.7,3.336-1.771,4.427-3.212c0.655-0.861,1.108-1.871,1.37-3.021c0.177,1.163,0.535,2.203,1.081,3.117
				c0.808,1.351,1.939,2.378,3.395,3.083c1.455,0.703,3.14,1.055,5.057,1.055c1.938,0,3.631-0.352,5.074-1.055
				c1.441-0.705,2.567-1.732,3.377-3.083c0.807-1.352,1.211-2.973,1.211-4.867c0-1.213-0.163-2.308-0.486-3.289h1.871v11.949H414
				v-11.949h2.009h2.355h0.312v6.132c0,1.5,0.281,2.7,0.849,3.603c0.564,0.898,1.396,1.552,2.493,1.955
				c1.097,0.403,2.454,0.604,4.069,0.604c0.877,0,1.813-0.103,2.807-0.312c0.992-0.206,1.776-0.496,2.354-0.865l-0.347-4.502
				c-0.3,0.161-0.624,0.276-0.971,0.346c-0.346,0.07-0.75,0.105-1.212,0.105c-0.715,0-1.24-0.169-1.574-0.505
				c-0.335-0.335-0.502-0.895-0.502-1.68v-4.883h4.229l3.25,11.949h9.905l2.009-8.521l2.009,8.521h9.905l4.71-17.317h-8.24V246.248z
				 M396.461,257.141c-0.127,0.52-0.312,0.883-0.554,1.091c-0.242,0.209-0.549,0.311-0.918,0.311c-0.347,0-0.646-0.102-0.9-0.311
				c-0.255-0.208-0.443-0.571-0.571-1.091c-0.127-0.521-0.19-1.266-0.19-2.235c0-0.968,0.063-1.719,0.19-2.251
				c0.126-0.53,0.316-0.895,0.571-1.091c0.254-0.195,0.554-0.293,0.9-0.293c0.369,0,0.676,0.098,0.918,0.293
				c0.243,0.196,0.427,0.561,0.554,1.091c0.127,0.532,0.19,1.283,0.19,2.251C396.652,255.876,396.588,256.621,396.461,257.141z"/>
			<path fill="#58595B" d="M511.967,251.776c-0.177-0.66-0.424-1.281-0.748-1.856c-0.716-1.271-1.761-2.258-3.134-2.962
				c-1.374-0.704-3.042-1.056-5.005-1.056c-1.917,0-3.597,0.352-5.039,1.056c-1.443,0.704-2.563,1.728-3.359,3.064
				c-0.153,0.257-0.286,0.53-0.411,0.812l0.464-4.517c-0.117-0.092-0.313-0.187-0.589-0.278c-0.277-0.092-0.682-0.137-1.213-0.137
				c-1.362,0-2.453,0.421-3.272,1.263c-0.82,0.844-1.426,1.98-1.818,3.411l-0.173-4.328H480.5v13.058c-0.9,0-1.35-0.474-1.35-1.42
				v-5.368c0-1.316-0.318-2.472-0.952-3.465c-0.637-0.991-1.605-1.766-2.91-2.319c-1.305-0.553-2.961-0.83-4.971-0.83
				c-2.862,0-5.045,0.563-6.545,1.696c-1.502,1.133-2.332,2.654-2.493,4.57l6.718,0.971c0.046-0.831,0.23-1.386,0.554-1.663
				c0.323-0.276,0.729-0.414,1.212-0.414c0.508,0,0.883,0.148,1.126,0.45c0.242,0.3,0.363,0.715,0.363,1.245v0.669l-5.472,1.134
				c-1.523,0.3-2.69,0.849-3.498,1.645c-0.81,0.796-1.212,1.829-1.212,3.101c0,0.946,0.219,1.766,0.656,2.459
				c0.439,0.691,1.079,1.225,1.923,1.593c0.843,0.368,1.876,0.554,3.1,0.554c1.154,0,2.182-0.207,3.082-0.624
				c0.901-0.413,1.622-0.974,2.165-1.678c0.125-0.163,0.231-0.331,0.329-0.502c0.116,0.337,0.265,0.646,0.467,0.918
				c0.473,0.634,1.131,1.105,1.974,1.419c0.843,0.312,1.807,0.467,2.893,0.467c1.092,0,2.034-0.18,2.839-0.524v0.181h7.967v-8.313
				c0-0.647,0.145-1.179,0.434-1.596c0.286-0.415,0.687-0.73,1.193-0.951c0.509-0.219,1.108-0.329,1.801-0.329
				c0.463,0,0.89,0.035,1.281,0.104c0.205,0.036,0.382,0.076,0.537,0.119c-0.146,0.717-0.226,1.481-0.226,2.305
				c0,1.918,0.393,3.545,1.179,4.884c0.784,1.34,1.915,2.361,3.394,3.066c1.479,0.703,3.255,1.055,5.334,1.055
				c1.029,0,2.032-0.122,3.012-0.356l2.602-5.503l-3.432-0.929c-0.115,0.462-0.34,0.826-0.675,1.094
				c-0.336,0.264-0.803,0.396-1.402,0.396c-0.554,0-1.011-0.086-1.368-0.259c-0.358-0.175-0.63-0.521-0.813-1.04
				c-0.087-0.241-0.15-0.54-0.195-0.884h8.65L511.967,251.776z M471.148,258.456c-0.07,0.196-0.169,0.364-0.294,0.502
				c-0.128,0.14-0.277,0.243-0.451,0.313c-0.174,0.067-0.353,0.104-0.537,0.104c-0.416,0-0.739-0.114-0.969-0.347
				c-0.232-0.231-0.348-0.53-0.348-0.899c0-0.393,0.104-0.722,0.313-0.986c0.207-0.267,0.553-0.456,1.038-0.572l1.351-0.325v1.538
				C471.252,258.034,471.218,258.26,471.148,258.456z M501.117,253.486c0.032-0.29,0.073-0.558,0.127-0.779
				c0.139-0.565,0.364-0.964,0.676-1.193c0.313-0.231,0.709-0.348,1.194-0.348c0.738,0,1.217,0.323,1.438,0.97
				c0.121,0.356,0.205,0.813,0.26,1.352L501.117,253.486L501.117,253.486z"/>
		</g>
		<path fill="#58595B" d="M356.038,235.621l16.198,32.395H339.84L356.038,235.621 M356.038,228.671l-21.227,42.454h42.454
			L356.038,228.671L356.038,228.671z"/>
		<path fill="#58595B" d="M363.734,258.692c-0.232-0.541-0.551-1.014-0.954-1.42c-0.408-0.405-0.889-0.729-1.445-0.965
			c-0.557-0.238-1.157-0.357-1.808-0.357c-0.639,0-1.236,0.117-1.801,0.35c-0.562,0.231-1.054,0.551-1.477,0.948
			c-0.047,0.044-0.082,0.103-0.128,0.15c-0.044-0.049-0.078-0.106-0.125-0.15c-0.405-0.397-0.876-0.717-1.415-0.948
			c-0.541-0.231-1.11-0.35-1.715-0.35c-0.453,0-0.888,0.09-1.302,0.269c-0.415,0.179-0.798,0.408-1.142,0.688v-1.568h-2.433v9.19
			h2.433v-0.654c0.355,0.294,0.739,0.532,1.149,0.71c0.409,0.182,0.84,0.271,1.293,0.271c0.615,0,1.191-0.115,1.729-0.351
			c0.54-0.23,1.009-0.549,1.408-0.955c0.041-0.041,0.069-0.091,0.108-0.134c0.041,0.043,0.07,0.093,0.112,0.134
			c0.416,0.406,0.908,0.725,1.477,0.955c0.566,0.234,1.175,0.351,1.824,0.351c0.39,0,0.772-0.045,1.15-0.131
			c0.378-0.087,0.74-0.211,1.087-0.368s0.666-0.348,0.956-0.571c0.293-0.222,0.545-0.476,0.762-0.759l-1.96-1.203
			c-0.195,0.249-0.48,0.448-0.854,0.601c-0.372,0.151-0.753,0.227-1.143,0.227c-0.542,0-0.986-0.147-1.339-0.439
			c-0.35-0.295-0.596-0.645-0.737-1.054h6.568c0.021-0.115,0.037-0.241,0.048-0.371c0.01-0.129,0.017-0.254,0.017-0.373
			C364.084,259.805,363.967,259.231,363.734,258.692z M354.691,261.283c-0.12,0.274-0.279,0.511-0.481,0.711
			c-0.199,0.2-0.437,0.358-0.712,0.478c-0.273,0.117-0.569,0.177-0.882,0.177c-0.313,0-0.609-0.06-0.884-0.177
			c-0.276-0.118-0.515-0.276-0.714-0.478c-0.2-0.2-0.359-0.437-0.479-0.711c-0.118-0.272-0.178-0.568-0.178-0.881
			s0.06-0.604,0.178-0.881c0.119-0.274,0.278-0.511,0.479-0.712c0.199-0.197,0.438-0.355,0.714-0.478
			c0.274-0.118,0.57-0.176,0.884-0.176c0.313,0,0.608,0.058,0.882,0.176c0.276,0.121,0.513,0.279,0.712,0.478
			c0.202,0.2,0.361,0.438,0.481,0.712c0.117,0.275,0.178,0.568,0.178,0.881S354.809,261.01,354.691,261.283z M357.517,259.485
			c0.174-0.366,0.431-0.681,0.771-0.94s0.756-0.388,1.241-0.388c0.486,0,0.902,0.128,1.249,0.388
			c0.346,0.261,0.601,0.574,0.763,0.94H357.517z"/>
	</g>
</g>
</svg>
